<?xml version="1.0"?>
<svg xmlns="http://www.w3.org/2000/svg" viewBox="0 0 64 64" width="512" height="512"><g id="outline"><path d="M32,30A12,12,0,1,0,20,18,12.013,12.013,0,0,0,32,30ZM32,8A10,10,0,1,1,22,18,10.011,10.011,0,0,1,32,8Z"/><path d="M32,2A15.915,15.915,0,0,0,21.453,6H12.586L2,16.586V44H27V62H37V44H62V6H42.547A15.915,15.915,0,0,0,32,2Zm0,2a13.992,13.992,0,0,1,1.867,27.86L33,31.977V42H31V31.977l-.867-.117A13.992,13.992,0,0,1,32,4ZM12,9.414V16H5.414ZM4,42V18h9a1,1,0,0,0,1-1V8h5.53A15.967,15.967,0,0,0,29,33.7V42ZM35,60H33V56H31v4H29V44h6ZM60,42H35V33.7A15.967,15.967,0,0,0,44.47,8H60Z"/><rect x="11" y="21" width="2" height="2"/><rect x="7" y="21" width="2" height="2"/><rect x="55" y="21" width="2" height="2"/><rect x="51" y="21" width="2" height="2"/><path d="M26,18c0-.614.2-6,6-6V10c-6.328,0-8,5.233-8,8Z"/><path d="M32,26c.08,0,8-.1,8-9H38c0,6.871-5.759,7-6,7Z"/><rect x="31" y="46" width="2" height="2"/></g></svg>
