<?xml version="1.0" encoding="iso-8859-1"?>
<!-- Generator: Adobe Illustrator 19.0.0, SVG Export Plug-In . SVG Version: 6.00 Build 0)  -->
<svg version="1.1" id="Capa_1" xmlns="http://www.w3.org/2000/svg" xmlns:xlink="http://www.w3.org/1999/xlink" x="0px" y="0px"
	 viewBox="0 0 496 496" style="enable-background:new 0 0 496 496;" xml:space="preserve">
<g>
	<g>
		<path d="M56,32c-13.232,0-24,10.768-24,24s10.768,24,24,24s24-10.768,24-24S69.232,32,56,32z M56,64c-4.408,0-8-3.584-8-8
			s3.592-8,8-8s8,3.584,8,8S60.408,64,56,64z"/>
	</g>
</g>
<g>
	<g>
		<path d="M464,240V84.688L379.312,0H56C25.12,0,0,25.128,0,56v320c0,30.872,25.12,56,56,56s56-25.128,56-56v-24h16v144h368V240H464
			z M384,27.312L436.688,80H384V27.312z M96,376c0,22.056-17.944,40-40,40c-22.056,0-40-17.944-40-40V95.112
			C26.176,105.52,40.336,112,56,112s29.824-6.48,40-16.888V376z M56,96c-22.056,0-40-17.944-40-40c0-22.056,17.944-40,40-40
			c22.056,0,40,17.944,40,40C96,78.056,78.056,96,56,96z M128,336h-16V56c0-15.664-6.48-29.824-16.888-40H368v80h80v144H128V336z
			 M288,256v48h-64v-48H288z M368,480H144V256h64v64h96v-64h64V480z M480,480h-96V256h96V480z"/>
	</g>
</g>
<g>
	<g>
		<rect x="280" y="416" width="72" height="16"/>
	</g>
</g>
<g>
	<g>
		<rect x="280" y="448" width="72" height="16"/>
	</g>
</g>
<g>
</g>
<g>
</g>
<g>
</g>
<g>
</g>
<g>
</g>
<g>
</g>
<g>
</g>
<g>
</g>
<g>
</g>
<g>
</g>
<g>
</g>
<g>
</g>
<g>
</g>
<g>
</g>
<g>
</g>
</svg>
